<?xml version="1.0" standalone="no"?>
<!DOCTYPE svg PUBLIC "-//W3C//DTD SVG 20010904//EN"
 "http://www.w3.org/TR/2001/REC-SVG-20010904/DTD/svg10.dtd">
<svg version="1.0" xmlns="http://www.w3.org/2000/svg"
 width="670.000000pt" height="501.000000pt" viewBox="0 0 670.000000 501.000000"
 preserveAspectRatio="xMidYMid meet">

<g transform="translate(0.000000,501.000000) scale(0.100000,-0.100000)"
fill="#000000" stroke="none">
<path d="M5235 4990 c3 -5 8 -10 11 -10 2 0 4 5 4 10 0 6 -5 10 -11 10 -5 0
-7 -4 -4 -10z"/>
<path d="M4985 4629 c-147 -48 -432 -115 -650 -154 -250 -45 -491 -110 -706
-191 -25 -10 -52 -15 -61 -12 -11 5 -22 40 -37 115 -26 133 -48 214 -61 227
-10 10 -88 -5 -145 -30 -16 -7 -59 -21 -95 -32 -36 -10 -99 -29 -140 -42 -327
-97 -556 -194 -638 -270 -64 -60 -132 -155 -181 -255 -24 -50 -49 -101 -56
-115 -7 -14 -25 -61 -40 -105 -31 -89 -26 -84 -217 -230 -178 -136 -337 -251
-498 -360 -257 -174 -243 -161 -238 -214 3 -27 18 -68 37 -99 17 -29 31 -59
31 -67 0 -14 -50 -47 -310 -206 -74 -46 -156 -98 -182 -116 -26 -18 -50 -33
-52 -33 -3 0 -47 -28 -98 -63 -117 -78 -180 -143 -221 -226 -29 -60 -32 -74
-31 -156 0 -99 13 -160 82 -390 59 -200 88 -259 154 -315 94 -80 106 -95 123
-156 19 -68 22 -75 65 -169 57 -124 140 -224 245 -300 80 -57 141 -87 255
-123 281 -91 624 -99 873 -20 74 24 74 25 52 95 -11 35 22 46 83 28 71 -21
153 -98 192 -180 35 -74 73 -241 68 -303 l-3 -43 80 6 c44 4 260 7 481 8 317
2 397 5 385 14 -14 10 -11 12 19 13 19 0 46 9 60 20 14 11 31 20 38 20 6 0 12
4 12 8 0 5 16 20 35 34 19 13 56 44 82 69 27 24 60 52 75 62 16 10 45 40 65
67 21 28 43 50 50 50 7 0 13 5 13 10 0 6 15 24 33 40 19 16 47 48 63 72 16 24
32 45 37 46 4 2 7 8 7 13 0 6 16 26 35 46 19 20 35 44 35 53 0 9 11 30 25 46
14 16 26 32 26 37 1 4 2 10 3 15 1 4 10 20 21 35 15 24 16 33 7 48 -15 23 -15
29 -2 29 6 0 10 -7 10 -15 0 -21 16 -19 23 2 3 10 12 29 21 43 28 48 56 111
56 126 0 8 7 22 15 30 10 10 15 36 16 72 0 31 3 51 6 45 8 -20 22 -15 35 12
19 41 93 28 119 -22 7 -13 21 -29 31 -34 10 -5 18 -14 18 -19 0 -6 12 -22 28
-37 15 -16 41 -48 57 -73 17 -25 36 -49 42 -53 7 -4 13 -18 13 -30 0 -12 9
-37 20 -55 11 -18 20 -44 20 -57 0 -33 27 -33 42 0 6 14 16 25 22 25 6 1 34
35 61 77 28 42 53 81 57 87 42 64 118 212 118 231 0 13 7 30 15 38 18 18 41
79 49 128 4 21 13 42 20 48 8 7 17 33 21 59 4 26 11 53 17 59 6 7 14 50 19 95
5 46 15 96 21 113 14 34 18 458 5 544 l-8 53 27 -21 c39 -30 92 -186 130 -381
27 -134 27 -426 0 -560 -36 -180 -109 -366 -196 -500 -20 -31 -39 -62 -42 -70
-8 -19 -176 -220 -220 -262 -92 -89 -280 -238 -380 -301 -51 -32 -54 -22 -54
166 1 125 -3 178 -12 195 -18 32 -33 24 -50 -29 -17 -49 -58 -128 -99 -190
-16 -23 -34 -54 -42 -68 -21 -38 -196 -211 -266 -262 -79 -58 -179 -120 -251
-155 l-59 -29 235 -3 c173 -2 254 1 310 12 121 23 225 36 381 45 159 10 144 5
265 90 169 119 396 338 515 496 72 97 180 262 200 308 5 12 13 29 17 37 20 34
31 60 71 158 22 56 45 119 50 140 6 20 17 64 26 97 9 33 22 83 30 110 22 82
38 314 32 460 -7 167 -5 170 93 162 88 -7 223 -35 288 -58 61 -22 92 -24 92
-6 0 25 -30 106 -85 231 -157 357 -317 599 -545 826 -123 124 -160 155 -285
242 -103 72 -292 168 -331 168 -17 0 -44 34 -44 56 0 10 11 60 26 109 47 163
53 189 70 300 30 198 7 502 -47 607 -16 31 -47 60 -61 57 -2 0 -30 -9 -63 -20z
m-212 -351 c24 -18 47 -118 54 -228 7 -114 -16 -222 -73 -338 -33 -67 -89
-140 -100 -130 -2 3 -6 61 -9 131 -6 170 -43 287 -91 287 -31 0 -281 -80 -559
-180 -104 -37 -239 -107 -277 -143 -50 -47 -79 -117 -89 -211 -12 -116 -39
-126 -108 -38 -139 176 -142 305 -11 430 77 75 186 123 510 224 193 61 206 65
465 137 99 27 191 54 205 60 35 14 63 13 83 -1z m-1648 -317 c11 -19 -28 -80
-59 -92 -17 -7 -53 -28 -80 -46 -26 -18 -57 -33 -67 -33 -23 0 -69 45 -69 69
0 20 62 81 84 81 7 0 19 7 26 15 14 17 155 22 165 6z m-86 -321 c60 -11 66
-17 82 -75 16 -60 77 -180 106 -209 21 -22 25 -35 24 -77 0 -38 -6 -55 -19
-65 -10 -6 -29 -36 -42 -66 -38 -82 -49 -85 -110 -28 -23 22 -46 37 -51 34 -5
-3 -9 0 -9 6 0 6 -17 18 -37 26 -21 8 -47 19 -57 26 -24 13 -179 26 -203 16
-10 -3 -35 -7 -55 -7 -20 -1 -41 -7 -45 -14 -4 -8 -23 -17 -41 -20 -19 -4 -51
-20 -72 -37 -21 -16 -42 -30 -48 -30 -5 0 -35 -25 -67 -55 -32 -30 -62 -55
-66 -55 -5 0 -13 -9 -19 -19 -27 -52 -135 -85 -187 -57 -47 24 -58 2 -39 -80
5 -23 3 -36 -9 -47 -33 -34 -37 -158 -6 -215 17 -32 6 -56 -42 -94 -48 -37
-177 -164 -225 -222 -17 -22 -32 -47 -32 -58 0 -20 3 -22 28 -9 9 5 42 19 72
31 30 13 69 29 85 36 17 7 62 25 100 40 39 16 88 40 110 54 22 15 60 34 85 44
118 45 142 70 99 104 -18 15 -20 22 -11 39 6 11 23 28 37 37 14 9 55 44 92 77
65 59 134 99 170 99 23 0 63 -27 63 -43 0 -7 4 -18 9 -26 8 -12 24 -5 85 37
41 29 107 66 147 82 40 16 75 33 78 37 14 19 89 63 107 63 11 0 28 6 39 14 11
7 45 17 75 20 30 4 80 14 110 23 93 26 342 0 390 -42 8 -7 51 -32 95 -56 44
-23 110 -66 146 -95 75 -60 171 -163 166 -179 -3 -6 -44 -10 -105 -10 -123 0
-136 -8 -92 -59 33 -37 143 -124 170 -134 8 -3 17 -8 20 -12 10 -12 135 -58
192 -69 31 -7 62 -19 69 -28 11 -13 8 -19 -21 -44 -83 -68 -319 -160 -525
-205 -59 -13 -57 -36 7 -97 59 -57 140 -159 159 -201 16 -35 4 -46 -81 -76
-64 -23 -184 -79 -249 -116 -43 -24 -244 -156 -251 -163 -3 -3 -25 -19 -50
-36 -40 -26 -177 -131 -190 -145 -3 -3 -40 -34 -83 -69 l-77 -64 -103 6 c-385
24 -628 17 -915 -29 -167 -26 -208 -41 -218 -80 -8 -33 2 -95 23 -139 16 -35
16 -36 -5 -58 -21 -20 -32 -22 -140 -21 -321 1 -543 130 -591 344 -13 60 -1
63 199 52 163 -9 176 -9 215 9 23 10 165 61 340 122 l120 42 215 -1 c152 0
247 -6 325 -18 153 -24 206 -24 243 3 17 11 32 21 35 21 3 0 38 20 79 45 40
25 83 49 96 55 44 19 398 272 427 305 6 6 38 35 73 64 37 32 62 61 62 73 0 11
-15 43 -34 71 -134 207 -130 199 -111 213 10 8 35 16 54 19 77 13 85 31 28 67
-153 97 -403 190 -547 203 -60 6 -70 4 -120 -24 -30 -16 -115 -59 -188 -96
-180 -89 -299 -164 -369 -233 -51 -50 -178 -198 -298 -347 -22 -27 -57 -68
-77 -90 -21 -22 -38 -43 -38 -46 0 -17 -362 -144 -491 -173 -28 -6 -225 17
-280 33 -59 18 -82 52 -87 125 -4 63 -4 64 34 97 21 19 66 62 101 97 84 83
102 90 164 57 27 -14 51 -25 53 -25 3 0 17 24 31 53 22 43 26 62 22 106 -3 49
-8 59 -43 89 -94 81 -159 116 -244 132 -36 6 -75 13 -87 16 -40 8 -26 37 39
79 34 22 66 42 72 44 6 2 29 16 51 31 40 27 96 58 260 145 118 63 125 69 125
120 0 61 18 72 65 40 44 -29 51 -30 97 -11 70 30 69 39 -16 120 -59 57 -77 80
-74 97 2 16 39 47 129 108 69 47 161 114 205 148 599 467 598 466 799 504 104
19 194 19 294 -1z m1151 -280 c41 -5 98 -12 125 -15 172 -21 412 -86 590 -160
266 -111 496 -285 653 -494 77 -103 108 -159 93 -174 -7 -7 -48 -5 -137 7 -69
10 -154 16 -189 14 -73 -3 -82 2 -126 80 -34 61 -199 231 -248 257 -17 8 -31
19 -31 24 0 12 -107 81 -125 81 -8 0 -15 4 -15 9 0 5 -9 13 -20 16 -11 3 -26
12 -33 20 -14 14 -155 82 -197 95 -14 5 -56 20 -95 34 -117 44 -176 63 -275
85 -52 12 -129 31 -170 41 -41 11 -106 22 -143 26 -51 4 -73 11 -87 27 -11 11
-17 23 -14 26 18 18 308 19 444 1z m-1265 -1194 c33 -7 78 -22 100 -33 91 -47
229 -202 223 -251 -3 -26 -96 -111 -203 -187 -27 -19 -81 -58 -120 -85 -38
-28 -103 -68 -144 -88 -74 -37 -76 -37 -200 -37 -151 0 -258 14 -478 61 -29 6
-31 44 -5 82 11 15 41 61 68 102 26 41 69 97 94 124 42 46 141 126 156 126 3
0 27 14 52 31 59 40 252 137 305 154 54 17 79 17 152 1z m-2147 -454 c48 -53
66 -105 60 -174 -6 -55 -21 -78 -52 -78 -49 0 -89 77 -107 208 -16 117 18 132
99 44z m3492 -698 c0 -8 -4 -12 -10 -9 -5 3 -10 10 -10 16 0 5 5 9 10 9 6 0
10 -7 10 -16z"/>
<path d="M2750 1938 c-1 -62 -15 -98 -39 -98 -6 0 -11 4 -11 8 0 13 -90 50
-135 57 -59 8 -65 0 -62 -80 2 -78 3 -77 -76 -61 -47 10 -67 -5 -67 -52 l0
-35 41 7 c40 6 43 5 90 -45 l48 -51 16 39 c9 21 21 63 26 93 6 30 14 59 19 64
17 17 62 -5 111 -55 68 -68 80 -64 101 39 9 45 20 87 23 92 10 16 40 11 69
-11 31 -25 50 -16 41 19 -15 59 -104 132 -162 132 l-33 0 0 -62z"/>
<path d="M2251 4488 c0 -9 -7 -18 -13 -21 -7 -2 -11 -7 -8 -10 11 -12 32 11
27 29 -4 15 -5 16 -6 2z"/>
<path d="M2180 4405 c0 -8 2 -15 4 -15 2 0 6 7 10 15 3 8 1 15 -4 15 -6 0 -10
-7 -10 -15z"/>
<path d="M205 2420 c5 -8 -41 -90 -51 -90 -2 0 -4 9 -4 20 0 11 7 20 15 20 8
0 15 7 15 15 0 8 -7 15 -15 15 -8 0 -15 -5 -15 -11 0 -14 -25 -39 -39 -39 -6
0 -11 -7 -11 -15 0 -8 -4 -15 -10 -15 -5 0 -10 -11 -10 -25 0 -20 -5 -25 -25
-25 -23 0 -25 -3 -25 -50 0 -27 -4 -50 -10 -50 -6 0 -10 -52 -10 -135 0 -83 4
-135 10 -135 6 0 10 -9 10 -19 0 -10 7 -21 15 -25 11 -4 15 -21 15 -66 0 -60
13 -90 39 -90 6 0 11 -18 11 -40 0 -22 5 -40 10 -40 6 0 10 -11 10 -25 0 -15
6 -25 14 -25 9 0 16 -12 18 -32 2 -17 8 -33 15 -35 8 -3 9 5 2 29 -4 18 -24
94 -44 168 -77 291 -56 490 72 679 22 32 23 51 2 51 -6 0 -7 -4 -4 -10z m-55
-104 c0 -3 -4 -8 -10 -11 -5 -3 -10 -1 -10 4 0 6 5 11 10 11 6 0 10 -2 10 -4z"/>
<path d="M6188 1763 c-16 -19 -47 -248 -35 -260 4 -3 7 6 7 20 0 15 5 27 10
27 6 0 10 40 10 100 0 82 3 100 15 100 8 0 15 7 15 15 0 19 -4 19 -22 -2z"/>
<path d="M6650 1740 c0 -29 4 -40 15 -40 11 0 15 11 15 40 0 29 -4 40 -15 40
-11 0 -15 -11 -15 -40z"/>
<path d="M6474 1695 c8 -8 27 -15 43 -15 l28 1 -34 14 c-43 19 -56 19 -37 0z"/>
<path d="M410 1026 c0 -9 5 -16 10 -16 6 0 10 4 10 9 0 6 -4 13 -10 16 -5 3
-10 -1 -10 -9z"/>
<path d="M2205 230 c-19 -8 -19 -9 3 -9 21 -1 22 -5 22 -76 0 -43 -4 -75 -10
-75 -5 0 -10 -16 -10 -35 0 -32 2 -35 30 -35 24 0 33 6 41 27 15 39 23 134 15
177 -6 33 -10 36 -39 35 -18 0 -41 -4 -52 -9z"/>
</g>
</svg>
